<?xml version="1.0" standalone="no"?><!DOCTYPE svg PUBLIC "-//W3C//DTD SVG 1.1//EN" "http://www.w3.org/Graphics/SVG/1.1/DTD/svg11.dtd"><svg t="1684335344342" class="icon" viewBox="0 0 1024 1024" version="1.1" xmlns="http://www.w3.org/2000/svg" p-id="5370" xmlns:xlink="http://www.w3.org/1999/xlink" width="200" height="200"><path d="M893.169 895.23m-64.103 0a64.103 64.103 0 1 0 128.206 0 64.103 64.103 0 1 0-128.206 0Z" fill="#4D4D4D" p-id="5371"></path><path d="M906.533 167.129c28.02 0 50.723-22.711 50.723-50.723s-22.703-50.723-50.723-50.723c-464.779 0-842.907 378.127-842.907 842.915 0 28.012 22.703 50.723 50.723 50.723s50.723-22.711 50.723-50.723c0-408.847 332.622-741.469 741.461-741.469z" fill="#4D4D4D" p-id="5372"></path><path d="M957.256 391.502c0-28.012-22.703-50.723-50.723-50.723-313.089 0-567.81 254.721-567.81 567.819 0 28.012 22.703 50.723 50.723 50.723s50.723-22.711 50.723-50.723c0-257.157 209.216-466.373 466.364-466.373 28.019 0 50.723-22.711 50.723-50.723z" fill="#4D4D4D" p-id="5373"></path><path d="M957.256 647.933c0-28.012-22.703-50.723-50.723-50.723-171.685 0-311.372 139.686-311.372 311.388 0 28.012 22.703 50.723 50.723 50.723s50.723-22.711 50.723-50.723c0-115.761 94.164-209.942 209.926-209.942 28.019 0 50.723-22.712 50.723-50.723z" fill="#4D4D4D" p-id="5374"></path></svg>